<?xml version="1.0" standalone="yes"?>
<svg xmlns="http://www.w3.org/2000/svg" width="750" height="750">
<path style="fill:#050505; stroke:none;" d="M301 290C260.664 274.133 219.197 262.334 176 274.455C95.2734 297.105 49.394 391.442 93.6182 466C123.264 515.981 178.838 538.096 235 532.785C251.5 531.225 278.201 517.817 293.536 520.642C299.804 521.797 308.29 536.457 313 540.921C329.294 556.366 347.565 569.339 364 584.922C369.27 589.919 378.629 601.026 386 602.324C393.422 603.632 407.013 587.656 412 582.922C427.504 568.204 444.287 556.044 459.999 541.78C466.286 536.073 471.667 525.335 478.916 521.227C483.508 518.625 494.24 524.093 499 525.422C515.051 529.902 531.435 532.31 548 533.783C591.413 537.641 634.356 519.222 663.921 488C724.996 423.504 696.693 318.029 619 282.335C570.59 260.095 520.207 270.279 473 290C483.23 253.255 467.92 205.802 429 192C433.506 182.123 436.328 165.502 443.956 157.744C453.777 147.755 467.877 151.781 470.495 133C473.956 108.164 441.468 94.5782 425.425 113.086C414.718 125.439 423.539 134.01 422.9 147C422.575 153.609 417.836 160.933 415.401 167C413.426 171.918 411.374 182.825 404.9 183.259C398.482 183.69 370.156 185.194 366.08 181.281C344.296 160.369 369.969 107.215 332 104.277C316.614 103.087 302.691 116.442 304.244 132C306.676 156.356 349.478 159.65 343.561 189.685C342.238 196.4 323.283 205.409 318.34 211.008C299.077 232.82 292.204 262.248 301 290M443 274C399.473 252.82 373.617 256.861 330 274C330 239.972 352.3 214.146 388 214.156C418.005 214.164 451.157 241.763 443 274M288 320C272.159 356.797 262.008 389.396 264.078 430C264.816 444.488 268.292 459.153 272.441 473C273.606 476.889 278.799 485.391 276.561 489.264C273.367 494.791 256.785 496.227 251 497.398C222.969 503.07 194.477 502.941 168 491.11C66.0042 445.534 110.711 302.001 215 302C240.647 302 264.578 310.215 288 320M486 320C509.303 310.034 533.383 301.995 559 302C663.162 302.022 707.686 445.476 606 490.981C579.457 502.859 552.123 502.69 524 497.561C518.047 496.476 500.691 494.95 497.417 489.322C495.023 485.207 500.345 476.115 501.642 472C506.119 457.809 508.827 442.832 509.864 428C512.62 388.58 501.281 355.497 486 320M476 350L298 350C300.354 340.96 307.052 324.272 315.406 319.26C322.449 315.034 337.936 318 346 318L425 318C433.674 318 450.946 314.694 458.476 319.26C467.085 324.478 473.15 340.808 476 350M287.501 400.862C298.317 395.516 322.802 400.648 335 400.462C367.299 399.971 399.75 402.033 432 400.96C446.807 400.467 471.539 396.234 485.539 400.579C491.117 402.311 490.346 429.542 486.178 432.178C476.778 438.124 449.2 433 438 433L333 433C320.637 433 299.972 437.034 288.501 432.499C283.496 430.519 282.623 403.273 287.501 400.862M474 483C470.902 492.79 463.403 509.715 453.919 514.74C446.453 518.696 432.306 516 424 516L351 516C342.648 516 326.804 519.042 319.479 514.74C310.766 509.623 302.073 492.593 300 483L474 483z"/>
</svg>
